<svg width="14" height="14" viewBox="0 0 14 14" fill="none" xmlns="http://www.w3.org/2000/svg">
<g clip-path="url(#clip0_3214_8863)">
<path d="M7 14C10.866 14 14 10.866 14 7C14 3.13401 10.866 0 7 0C3.13401 0 0 3.13401 0 7C0 10.866 3.13401 14 7 14Z" fill="#0AC18E"/>
<path d="M9.1835 4.64944C8.83172 3.85173 8.02334 3.68117 7.03375 3.8464L6.71573 2.6134L5.96598 2.80706L6.27867 4.0365C6.08147 4.08625 5.87893 4.12889 5.67817 4.18574L5.36548 2.9634L4.61573 3.15706L4.93375 4.39005C4.77207 4.43625 3.42004 4.78269 3.42004 4.78269L3.62614 5.58574C3.62614 5.58574 4.1769 5.43117 4.17157 5.44361C4.47715 5.36366 4.62106 5.51645 4.68857 5.66036L5.56268 9.03955C5.57334 9.13726 5.55558 9.30427 5.34593 9.36112C5.35837 9.36823 4.8005 9.50147 4.8005 9.50147L4.88223 10.4378C4.88223 10.4378 6.22182 10.0949 6.39771 10.0505L6.71928 11.2977L7.46903 11.104L7.14745 9.84792C7.35355 9.79995 7.55431 9.75021 7.74974 9.69868L8.06954 10.9477L8.81928 10.754L8.49771 9.50858C9.65253 9.22787 10.468 8.49944 10.301 7.38548C10.1944 6.71391 9.46065 6.16315 8.85126 6.10097C9.22614 5.76873 9.41624 5.28371 9.1835 4.64944ZM8.82284 7.5898C8.97207 8.6931 7.43883 8.82812 6.93248 8.96137L6.49187 7.31087C6.99999 7.17762 8.57055 6.61797 8.82284 7.5898ZM7.89898 5.34234C8.0571 6.32305 6.74593 6.43675 6.32309 6.54513L5.92157 5.04741C6.34619 4.94259 7.5774 4.43447 7.89898 5.34234Z" fill="white"/>
</g>
<defs>
<clipPath id="clip0_3214_8863">
<rect width="14" height="14" fill="white"/>
</clipPath>
</defs>
</svg>
