<svg width="14" height="14" viewBox="0 0 14 14" fill="none" xmlns="http://www.w3.org/2000/svg">
<g clip-path="url(#clip0_3214_8850)">
<path d="M13.7905 8.69333C12.8555 12.4434 9.05694 14.7256 5.30603 13.7904C1.5567 12.8555 -0.725753 9.05711 0.209663 5.30738C1.14426 1.55693 4.94286 -0.725436 8.6926 0.209464C12.4432 1.14436 14.7256 4.94319 13.7904 8.6934L13.7905 8.69333H13.7905Z" fill="#F7931A"/>
<path d="M10.0871 6.00269C10.2264 5.07115 9.51715 4.57041 8.54725 4.23636L8.86189 2.9745L8.09367 2.7831L7.78737 4.01174C7.58541 3.96137 7.37801 3.91392 7.17187 3.86687L7.48039 2.63012L6.71265 2.43872L6.39783 3.70017C6.23071 3.66213 6.06656 3.62452 5.9073 3.5849L5.90819 3.58093L4.8488 3.31641L4.64444 4.13683C4.64444 4.13683 5.2144 4.26746 5.20239 4.2755C5.51347 4.35314 5.56973 4.55905 5.56039 4.72225L5.20198 6.15981C5.2234 6.16525 5.25118 6.17312 5.28184 6.18544C5.25621 6.17908 5.22894 6.17213 5.20064 6.16535L4.69827 8.17917C4.66025 8.27367 4.56375 8.41549 4.34626 8.36164C4.35396 8.37279 3.7879 8.22231 3.7879 8.22231L3.40649 9.10158L4.40621 9.35077C4.59219 9.39741 4.77444 9.4462 4.95392 9.49208L4.63602 10.7684L5.40336 10.9598L5.71817 9.69703C5.9278 9.75393 6.13123 9.80642 6.33039 9.85589L6.01663 11.1127L6.78489 11.3041L7.10275 10.0302C8.41273 10.2781 9.39773 10.1781 9.81233 8.99339C10.1464 8.03953 9.7957 7.48935 9.10652 7.13057C9.60849 7.01482 9.98657 6.68471 10.0874 6.0028L10.0871 6.00263L10.0871 6.00269ZM8.3319 8.46367C8.09449 9.41752 6.48831 8.9019 5.96756 8.7726L6.38942 7.08168C6.91013 7.21166 8.58003 7.46889 8.33194 8.46367H8.3319ZM8.56949 5.98887C8.35291 6.8565 7.01607 6.41571 6.58241 6.30762L6.96488 4.77406C7.39854 4.88214 8.79509 5.08388 8.56956 5.98887H8.56949Z" fill="white"/>
</g>
<defs>
<clipPath id="clip0_3214_8850">
<rect width="14" height="14" fill="white"/>
</clipPath>
</defs>
</svg>
