<svg width="20" height="20" viewBox="0 0 20 20" fill="none" xmlns="http://www.w3.org/2000/svg">
<path d="M6.16738 1.34909C6.36229 1.15582 6.67657 1.15582 6.87148 1.34909L7.97965 2.44791C8.17691 2.64351 8.17691 2.9624 7.97965 3.158L3.57143 7.52905V8.27586H8.21428C8.49043 8.27586 8.71429 8.49972 8.71429 8.77586V16.7C8.71429 16.9761 8.49043 17.2 8.21429 17.2H1.5C1.22386 17.2 1 16.9761 1 16.7V6.88961C1 6.62293 1.10652 6.36729 1.29589 6.17952L6.16738 1.34909Z" fill="white" fill-opacity="0.9"/>
<path d="M18.9999 8.77586C18.9999 8.49972 18.7761 8.27586 18.4999 8.27586H13.8571V7.52905L18.2653 3.158C18.4625 2.9624 18.4625 2.64351 18.2653 2.44791L17.1571 1.34909C16.9622 1.15582 16.6479 1.15582 16.453 1.34909L11.5815 6.17952C11.3922 6.36729 11.2856 6.62293 11.2856 6.88961V16.7C11.2856 16.9761 11.5095 17.2 11.7856 17.2H18.4999C18.7761 17.2 18.9999 16.9761 18.9999 16.7V8.77586Z" fill="white" fill-opacity="0.9"/>
</svg>
