<svg width="20" height="20" viewBox="0 0 20 20" fill="none" xmlns="http://www.w3.org/2000/svg">
<path d="M19.8327 10.9321C19.4603 8.2979 18.484 5.90215 17.021 3.70288C16.97 3.62851 16.9007 3.56896 16.82 3.53017C15.5866 2.96589 14.2894 2.55719 12.9576 2.31328C12.9364 2.30626 12.9141 2.30356 12.8918 2.30534C12.8696 2.30713 12.8479 2.31335 12.828 2.32366C12.8082 2.33398 12.7905 2.34817 12.7761 2.36542C12.7617 2.38268 12.7508 2.40265 12.7441 2.42419C12.6189 2.69197 12.4781 2.95262 12.3639 3.22436C12.3091 3.35429 12.2426 3.38281 12.1135 3.36617C11.7654 3.32022 11.4165 3.27902 11.066 3.2513C10.0011 3.16839 8.93038 3.20745 7.87414 3.36776C7.74662 3.38677 7.6942 3.34003 7.64335 3.22515C7.52079 2.94945 7.38623 2.67956 7.23967 2.41548C7.21727 2.3852 7.18804 2.36078 7.15443 2.34424C7.12082 2.3277 7.0838 2.31953 7.04644 2.32041C5.70673 2.55755 4.40228 2.96647 3.16457 3.5373C3.08494 3.57812 3.01744 3.63964 2.96899 3.71555C0.727647 7.13092 -0.291716 10.8687 0.07441 14.9726C0.0764449 15.0303 0.0923233 15.0866 0.120674 15.1367C0.149025 15.1868 0.188994 15.2292 0.237131 15.2602C1.60341 16.2618 3.11161 17.0482 4.71043 17.5925C5.14775 17.7415 5.15714 17.751 5.40983 17.3548C5.69459 16.9096 5.95745 16.4501 6.24769 15.9692C5.64296 15.7094 5.07421 15.4741 4.55866 15.1342C4.85282 14.7911 4.89428 14.7816 5.26275 14.9409C5.28075 14.948 5.29952 14.9536 5.31751 14.9615C7.35155 15.8274 9.46381 16.1372 11.6543 15.8234C12.7689 15.6598 13.8555 15.3398 14.8829 14.8727C14.9494 14.8434 15.0464 14.8094 15.0973 14.8371C15.2362 14.9288 15.3683 15.0307 15.4924 15.1421L13.7486 15.993C14.1006 16.5539 14.4417 17.1021 14.7945 17.6472C14.8196 17.686 14.9322 17.6963 14.9917 17.6781C16.7221 17.1356 18.3504 16.3033 19.8092 15.2158C19.8676 15.1685 19.9061 15.1005 19.9172 15.0257C20.051 13.6626 20.0226 12.2883 19.8327 10.9321ZM7.89682 12.2869C7.23498 12.9745 6.25004 12.9999 5.54986 12.3582C4.6455 11.5287 4.67601 9.93864 5.61245 9.14402C6.38382 8.48963 7.49002 8.64886 8.09553 9.50132C8.35057 9.86179 8.482 10.2936 8.48278 10.9535C8.4582 11.4563 8.24926 11.9318 7.89682 12.2869ZM14.5301 12.3027C14.377 12.4661 14.193 12.5965 13.989 12.6862C13.785 12.7759 13.5652 12.823 13.3429 12.8247C13.1205 12.8264 12.9 12.7827 12.6947 12.6961C12.4894 12.6096 12.3034 12.4819 12.1479 12.3209C11.3171 11.4986 11.3249 10.0393 12.1636 9.22641C13.0859 8.33276 14.5559 8.73601 14.9932 10.0115C15.0754 10.2492 15.1012 10.5091 15.1497 10.7586C15.1208 11.3536 14.9455 11.8773 14.5301 12.3027Z" fill="white" fill-opacity="0.9"/>
</svg>
