<svg viewBox="0 0 105 36" fill="none" xmlns="http://www.w3.org/2000/svg">
<path fill-rule="evenodd" clip-rule="evenodd" d="M20.9786 1.31024e-06H25.1204C26.539 -3.13147e-05 27.7326 -5.92776e-05 28.7097 0.0808323C29.7317 0.165446 30.7053 0.349349 31.63 0.826795C33.0386 1.55406 34.1838 2.71453 34.9015 4.14187C35.3727 5.07891 35.5542 6.06538 35.6377 7.10101C35.7175 8.09109 35.7175 9.30059 35.7175 10.7382V14.7189C35.7175 16.1565 35.7175 17.366 35.6377 18.3561C35.5542 19.3917 35.3727 20.3782 34.9015 21.3152C34.1838 22.7426 33.0386 23.903 31.63 24.6303C30.7053 25.1078 29.7317 25.2917 28.7097 25.3763C27.7326 25.4572 26.539 25.4571 25.1203 25.4571H12.7517C11.8829 25.4571 11.0989 24.9289 10.7627 24.1171C10.4265 23.3053 10.6038 22.3684 11.2124 21.7402L21.4265 11.1974L24.505 14.2598L17.8919 21.0857H25.0339C26.5618 21.0857 27.578 21.084 28.3584 21.0194C29.1137 20.9568 29.4562 20.8465 29.6715 20.7353C30.2683 20.4272 30.7536 19.9355 31.0577 19.3307C31.1674 19.1126 31.2763 18.7654 31.338 18.0001C31.4018 17.2093 31.4034 16.1796 31.4034 14.6314V10.8257C31.4034 9.27749 31.4018 8.24779 31.338 7.45698C31.2763 6.69169 31.1674 6.34453 31.0577 6.12645C30.7536 5.52165 30.2683 5.02992 29.6715 4.72176C29.4562 4.61064 29.1137 4.50026 28.3584 4.43774C27.578 4.37312 26.5618 4.37142 25.0339 4.37142H21.0656C19.521 4.37142 18.493 4.37314 17.704 4.43879C16.9399 4.50236 16.5945 4.61461 16.3785 4.72712C15.7781 5.03994 15.2918 5.53874 14.9904 6.15095C14.882 6.37113 14.7755 6.72248 14.7221 7.49745C14.6669 8.29771 14.6777 9.33936 14.6966 10.9044L14.7182 12.7019L10.4045 12.7552L10.3818 10.8695C10.3643 9.41585 10.3496 8.19356 10.4185 7.19288C10.4906 6.14673 10.6627 5.14896 11.13 4.19969C11.8413 2.75487 12.9889 1.5777 14.4059 0.839439C15.337 0.354382 16.3195 0.167848 17.3509 0.0820292C18.3376 -5.95314e-05 19.5439 -3.15736e-05 20.9786 1.31024e-06Z" fill="url(#paint0_linear_272_247)"/>
<path fill-rule="evenodd" clip-rule="evenodd" d="M20.9786 1.31024e-06H25.1204C26.539 -3.13147e-05 27.7326 -5.92776e-05 28.7097 0.0808323C29.7317 0.165446 30.7053 0.349349 31.63 0.826795C33.0386 1.55406 34.1838 2.71453 34.9015 4.14187C35.3727 5.07891 35.5542 6.06538 35.6377 7.10101C35.7175 8.09109 35.7175 9.30059 35.7175 10.7382V14.7189C35.7175 16.1565 35.7175 17.366 35.6377 18.3561C35.5542 19.3917 35.3727 20.3782 34.9015 21.3152C34.1838 22.7426 33.0386 23.903 31.63 24.6303C30.7053 25.1078 29.7317 25.2917 28.7097 25.3763C27.7326 25.4572 26.539 25.4571 25.1203 25.4571H12.7517C11.8829 25.4571 11.0989 24.9289 10.7627 24.1171C10.4265 23.3053 10.6038 22.3684 11.2124 21.7402L21.4265 11.1974L24.505 14.2598L17.8919 21.0857H25.0339C26.5618 21.0857 27.578 21.084 28.3584 21.0194C29.1137 20.9568 29.4562 20.8465 29.6715 20.7353C30.2683 20.4272 30.7536 19.9355 31.0577 19.3307C31.1674 19.1126 31.2763 18.7654 31.338 18.0001C31.4018 17.2093 31.4034 16.1796 31.4034 14.6314V10.8257C31.4034 9.27749 31.4018 8.24779 31.338 7.45698C31.2763 6.69169 31.1674 6.34453 31.0577 6.12645C30.7536 5.52165 30.2683 5.02992 29.6715 4.72176C29.4562 4.61064 29.1137 4.50026 28.3584 4.43774C27.578 4.37312 26.5618 4.37142 25.0339 4.37142H21.0656C19.521 4.37142 18.493 4.37314 17.704 4.43879C16.9399 4.50236 16.5945 4.61461 16.3785 4.72712C15.7781 5.03994 15.2918 5.53874 14.9904 6.15095C14.882 6.37113 14.7755 6.72248 14.7221 7.49745C14.6669 8.29771 14.6777 9.33936 14.6966 10.9044L14.7182 12.7019L10.4045 12.7552L10.3818 10.8695C10.3643 9.41585 10.3496 8.19356 10.4185 7.19288C10.4906 6.14673 10.6627 5.14896 11.13 4.19969C11.8413 2.75487 12.9889 1.5777 14.4059 0.839439C15.337 0.354382 16.3195 0.167848 17.3509 0.0820292C18.3376 -5.95314e-05 19.5439 -3.15736e-05 20.9786 1.31024e-06Z" fill="url(#paint1_radial_272_247)"/>
<path fill-rule="evenodd" clip-rule="evenodd" d="M20.9786 1.31024e-06H25.1204C26.539 -3.13147e-05 27.7326 -5.92776e-05 28.7097 0.0808323C29.7317 0.165446 30.7053 0.349349 31.63 0.826795C33.0386 1.55406 34.1838 2.71453 34.9015 4.14187C35.3727 5.07891 35.5542 6.06538 35.6377 7.10101C35.7175 8.09109 35.7175 9.30059 35.7175 10.7382V14.7189C35.7175 16.1565 35.7175 17.366 35.6377 18.3561C35.5542 19.3917 35.3727 20.3782 34.9015 21.3152C34.1838 22.7426 33.0386 23.903 31.63 24.6303C30.7053 25.1078 29.7317 25.2917 28.7097 25.3763C27.7326 25.4572 26.539 25.4571 25.1203 25.4571H12.7517C11.8829 25.4571 11.0989 24.9289 10.7627 24.1171C10.4265 23.3053 10.6038 22.3684 11.2124 21.7402L21.4265 11.1974L24.505 14.2598L17.8919 21.0857H25.0339C26.5618 21.0857 27.578 21.084 28.3584 21.0194C29.1137 20.9568 29.4562 20.8465 29.6715 20.7353C30.2683 20.4272 30.7536 19.9355 31.0577 19.3307C31.1674 19.1126 31.2763 18.7654 31.338 18.0001C31.4018 17.2093 31.4034 16.1796 31.4034 14.6314V10.8257C31.4034 9.27749 31.4018 8.24779 31.338 7.45698C31.2763 6.69169 31.1674 6.34453 31.0577 6.12645C30.7536 5.52165 30.2683 5.02992 29.6715 4.72176C29.4562 4.61064 29.1137 4.50026 28.3584 4.43774C27.578 4.37312 26.5618 4.37142 25.0339 4.37142H21.0656C19.521 4.37142 18.493 4.37314 17.704 4.43879C16.9399 4.50236 16.5945 4.61461 16.3785 4.72712C15.7781 5.03994 15.2918 5.53874 14.9904 6.15095C14.882 6.37113 14.7755 6.72248 14.7221 7.49745C14.6669 8.29771 14.6777 9.33936 14.6966 10.9044L14.7182 12.7019L10.4045 12.7552L10.3818 10.8695C10.3643 9.41585 10.3496 8.19356 10.4185 7.19288C10.4906 6.14673 10.6627 5.14896 11.13 4.19969C11.8413 2.75487 12.9889 1.5777 14.4059 0.839439C15.337 0.354382 16.3195 0.167848 17.3509 0.0820292C18.3376 -5.95314e-05 19.5439 -3.15736e-05 20.9786 1.31024e-06Z" fill="url(#paint2_radial_272_247)"/>
<path fill-rule="evenodd" clip-rule="evenodd" d="M20.9786 1.31024e-06H25.1204C26.539 -3.13147e-05 27.7326 -5.92776e-05 28.7097 0.0808323C29.7317 0.165446 30.7053 0.349349 31.63 0.826795C33.0386 1.55406 34.1838 2.71453 34.9015 4.14187C35.3727 5.07891 35.5542 6.06538 35.6377 7.10101C35.7175 8.09109 35.7175 9.30059 35.7175 10.7382V14.7189C35.7175 16.1565 35.7175 17.366 35.6377 18.3561C35.5542 19.3917 35.3727 20.3782 34.9015 21.3152C34.1838 22.7426 33.0386 23.903 31.63 24.6303C30.7053 25.1078 29.7317 25.2917 28.7097 25.3763C27.7326 25.4572 26.539 25.4571 25.1203 25.4571H12.7517C11.8829 25.4571 11.0989 24.9289 10.7627 24.1171C10.4265 23.3053 10.6038 22.3684 11.2124 21.7402L21.4265 11.1974L24.505 14.2598L17.8919 21.0857H25.0339C26.5618 21.0857 27.578 21.084 28.3584 21.0194C29.1137 20.9568 29.4562 20.8465 29.6715 20.7353C30.2683 20.4272 30.7536 19.9355 31.0577 19.3307C31.1674 19.1126 31.2763 18.7654 31.338 18.0001C31.4018 17.2093 31.4034 16.1796 31.4034 14.6314V10.8257C31.4034 9.27749 31.4018 8.24779 31.338 7.45698C31.2763 6.69169 31.1674 6.34453 31.0577 6.12645C30.7536 5.52165 30.2683 5.02992 29.6715 4.72176C29.4562 4.61064 29.1137 4.50026 28.3584 4.43774C27.578 4.37312 26.5618 4.37142 25.0339 4.37142H21.0656C19.521 4.37142 18.493 4.37314 17.704 4.43879C16.9399 4.50236 16.5945 4.61461 16.3785 4.72712C15.7781 5.03994 15.2918 5.53874 14.9904 6.15095C14.882 6.37113 14.7755 6.72248 14.7221 7.49745C14.6669 8.29771 14.6777 9.33936 14.6966 10.9044L14.7182 12.7019L10.4045 12.7552L10.3818 10.8695C10.3643 9.41585 10.3496 8.19356 10.4185 7.19288C10.4906 6.14673 10.6627 5.14896 11.13 4.19969C11.8413 2.75487 12.9889 1.5777 14.4059 0.839439C15.337 0.354382 16.3195 0.167848 17.3509 0.0820292C18.3376 -5.95314e-05 19.5439 -3.15736e-05 20.9786 1.31024e-06Z" fill="url(#paint3_radial_272_247)"/>
<path fill-rule="evenodd" clip-rule="evenodd" d="M7.35882 31.5622C8.13925 31.6268 9.15543 31.6285 10.6833 31.6285H14.7182C16.1113 31.6285 17.0379 31.6271 17.7516 31.5731C18.4433 31.5208 18.7605 31.4281 18.9591 31.3358C19.6493 31.015 20.203 30.4539 20.5196 29.7545C20.6108 29.5532 20.7022 29.2318 20.7539 28.5309C20.8071 27.8077 20.8085 26.8688 20.8085 25.4571H25.1226L25.1226 25.5369C25.1226 26.8479 25.1226 27.951 25.0559 28.8563C24.9862 29.8023 24.835 30.7064 24.4408 31.5772C23.6935 33.2278 22.3868 34.5519 20.7579 35.3091C19.8985 35.7086 19.0063 35.8618 18.0727 35.9324C17.1792 36 16.0906 36 14.7969 36L10.5968 36C9.17819 36 7.98459 36 7.00753 35.9191C5.9855 35.8345 5.01198 35.6506 4.08725 35.1732C2.67865 34.4459 1.53343 33.2854 0.815712 31.8581C0.344534 30.9211 0.16305 29.9346 0.0795441 28.899C-0.000284195 27.9089 -0.000255585 26.6994 -0.00022316 25.2618V21.281C-0.000255585 19.8435 -0.000284195 18.6339 0.0795441 17.6439C0.16305 16.6082 0.344538 15.6218 0.815712 14.6847C1.53343 13.2574 2.67865 12.0969 4.08725 11.3697C5.01198 10.8922 5.9855 10.7083 7.00753 10.6237C7.98461 10.5428 9.17823 10.5428 10.5969 10.5429H22.9656C24.1568 10.5429 25.1226 11.5214 25.1226 12.7286C25.1226 13.9357 24.1568 14.9143 22.9656 14.9143H10.6833C9.15543 14.9143 8.13925 14.916 7.35883 14.9806C6.60358 15.0431 6.26099 15.1535 6.04577 15.2646C5.44891 15.5728 4.96364 16.0645 4.65952 16.6693C4.54987 16.8874 4.44094 17.2346 4.37923 17.9998C4.31547 18.7907 4.31379 19.8204 4.31379 21.3686V25.1743C4.31379 26.7225 4.31547 27.7522 4.37923 28.543C4.44094 29.3083 4.54987 29.6554 4.65952 29.8735C4.96364 30.4783 5.44891 30.97 6.04577 31.2782C6.26099 31.3893 6.60358 31.4997 7.35882 31.5622Z" fill="url(#paint4_linear_272_247)"/>
<path fill-rule="evenodd" clip-rule="evenodd" d="M7.35882 31.5622C8.13925 31.6268 9.15543 31.6285 10.6833 31.6285H14.7182C16.1113 31.6285 17.0379 31.6271 17.7516 31.5731C18.4433 31.5208 18.7605 31.4281 18.9591 31.3358C19.6493 31.015 20.203 30.4539 20.5196 29.7545C20.6108 29.5532 20.7022 29.2318 20.7539 28.5309C20.8071 27.8077 20.8085 26.8688 20.8085 25.4571H25.1226L25.1226 25.5369C25.1226 26.8479 25.1226 27.951 25.0559 28.8563C24.9862 29.8023 24.835 30.7064 24.4408 31.5772C23.6935 33.2278 22.3868 34.5519 20.7579 35.3091C19.8985 35.7086 19.0063 35.8618 18.0727 35.9324C17.1792 36 16.0906 36 14.7969 36L10.5968 36C9.17819 36 7.98459 36 7.00753 35.9191C5.9855 35.8345 5.01198 35.6506 4.08725 35.1732C2.67865 34.4459 1.53343 33.2854 0.815712 31.8581C0.344534 30.9211 0.16305 29.9346 0.0795441 28.899C-0.000284195 27.9089 -0.000255585 26.6994 -0.00022316 25.2618V21.281C-0.000255585 19.8435 -0.000284195 18.6339 0.0795441 17.6439C0.16305 16.6082 0.344538 15.6218 0.815712 14.6847C1.53343 13.2574 2.67865 12.0969 4.08725 11.3697C5.01198 10.8922 5.9855 10.7083 7.00753 10.6237C7.98461 10.5428 9.17823 10.5428 10.5969 10.5429H22.9656C24.1568 10.5429 25.1226 11.5214 25.1226 12.7286C25.1226 13.9357 24.1568 14.9143 22.9656 14.9143H10.6833C9.15543 14.9143 8.13925 14.916 7.35883 14.9806C6.60358 15.0431 6.26099 15.1535 6.04577 15.2646C5.44891 15.5728 4.96364 16.0645 4.65952 16.6693C4.54987 16.8874 4.44094 17.2346 4.37923 17.9998C4.31547 18.7907 4.31379 19.8204 4.31379 21.3686V25.1743C4.31379 26.7225 4.31547 27.7522 4.37923 28.543C4.44094 29.3083 4.54987 29.6554 4.65952 29.8735C4.96364 30.4783 5.44891 30.97 6.04577 31.2782C6.26099 31.3893 6.60358 31.4997 7.35882 31.5622Z" fill="url(#paint5_radial_272_247)"/>
<path d="M57.9691 24.9344V27.1632C57.9691 27.4813 57.7129 27.7411 57.3971 27.7411H45.1845C45.1677 27.7411 45.149 27.7411 45.1322 27.7392C44.5193 27.7222 43.9806 27.4041 43.6554 26.9261C43.6535 26.9223 43.6518 26.9184 43.648 26.9149C43.4995 26.6624 43.4141 26.3671 43.4141 26.0488C43.4141 25.6969 43.5198 25.3731 43.7001 25.1019C43.715 25.0794 43.7299 25.0569 43.7464 25.036L53.0203 12.0266H44.7144C44.4005 12.0266 44.1441 11.7667 44.1441 11.4467V9.21985C44.1441 8.89984 44.4005 8.64 44.7144 8.64H56.3548C56.3678 8.64 56.3808 8.64 56.3939 8.64191C56.3974 8.64191 56.4031 8.64 56.4088 8.64191C57.0423 8.65893 57.5977 9.00148 57.9171 9.51158C57.9209 9.51733 57.9227 9.52092 57.9246 9.52476C58.0545 9.76567 58.1269 10.0406 58.1269 10.3323C58.1269 10.6823 58.0212 11.0081 57.8409 11.2792C57.8262 11.3017 57.8113 11.3226 57.7945 11.3451L48.519 24.3565H57.3971C57.7129 24.3565 57.9691 24.6163 57.9691 24.9344Z" fill="#0C0C3A"/>
<path d="M65.7808 24.878C63.6889 24.878 62.1676 23.2271 62.1676 20.9437C62.1676 18.6319 63.6889 16.9811 65.7808 16.9811C67.8705 16.9811 69.3642 18.6319 69.3642 20.9437C69.3642 23.2271 67.8705 24.878 65.7808 24.878ZM72.3254 14.1461H69.9364C69.6206 14.1461 69.3642 14.4059 69.3642 14.7242V16.3185C68.2793 14.7786 66.5962 13.8694 64.6401 13.8694C61.1087 13.8694 58.5283 16.8437 58.5283 20.9437C58.5283 25.0436 61.1087 27.9897 64.6401 27.9897C66.5962 27.9897 68.2793 27.0824 69.3642 25.5669V27.1351C69.3642 27.47 69.6336 27.7411 69.9624 27.7411H72.3254C72.6561 27.7411 72.9237 27.47 72.9237 27.1351V14.7504C72.9237 14.4172 72.6561 14.1461 72.3254 14.1461Z" fill="#0C0C3A"/>
<path d="M83.5789 13.8699C81.7317 13.8699 80.2101 14.7506 79.341 16.2101V14.7237C79.341 14.3385 79.1243 14.1458 78.7709 14.1458H76.38C76.0277 14.1458 75.811 14.3385 75.811 14.7237V27.1358C75.811 27.521 76.0277 27.7418 76.38 27.7418H78.7709C79.1243 27.7418 79.341 27.521 79.341 27.1358V19.76C79.341 17.9435 80.4824 16.7327 82.1929 16.7327C83.85 16.7327 84.9638 17.9435 84.9638 19.76V27.1358C84.9638 27.4704 85.2313 27.7418 85.5606 27.7418H87.9248C88.2538 27.7418 88.5216 27.4704 88.5216 27.1358V19.2377C88.5216 16.0716 86.4841 13.8699 83.5789 13.8699Z" fill="#0C0C3A"/>
<path d="M97.7467 24.878C95.6551 24.878 94.1633 23.2271 94.1633 20.9437C94.1633 18.6319 95.6551 16.9811 97.7467 16.9811C99.8663 16.9811 101.36 18.6319 101.36 20.9437C101.36 23.2271 99.8663 24.878 97.7467 24.878ZM97.7747 13.8694C93.5651 13.8694 90.522 16.8437 90.522 20.9437C90.522 25.0436 93.5651 27.9897 97.7747 27.9897C101.958 27.9897 104.999 25.0436 104.999 20.9437C104.999 16.8437 101.958 13.8694 97.7747 13.8694Z" fill="#0C0C3A"/>
<defs>
<linearGradient id="paint0_linear_272_247" x1="17.0186" y1="25.2594" x2="17.3088" y2="-0.0324009" gradientUnits="userSpaceOnUse">
<stop offset="0.43118" stop-color="#498FFD"/>
<stop offset="1" stop-color="#16D1D6"/>
</linearGradient>
<radialGradient id="paint1_radial_272_247" cx="0" cy="0" r="1" gradientTransform="matrix(15.7034 -4.38794 4.36952 15.7204 10.0679 7.70769)" gradientUnits="userSpaceOnUse">
<stop stop-color="#18CFD7"/>
<stop offset="1" stop-color="#18CFD7" stop-opacity="0"/>
</radialGradient>
<radialGradient id="paint2_radial_272_247" cx="0" cy="0" r="1" gradientTransform="matrix(-5.40609 2.83925 -2.82734 -5.41193 19.5929 14.9349)" gradientUnits="userSpaceOnUse">
<stop stop-color="#4990FE"/>
<stop offset="0.353962" stop-color="#4990FE"/>
<stop offset="1" stop-color="#4990FE" stop-opacity="0"/>
</radialGradient>
<radialGradient id="paint3_radial_272_247" cx="0" cy="0" r="1" gradientTransform="matrix(7.72298 -8.00153 7.96795 7.73133 12.1274 23.1945)" gradientUnits="userSpaceOnUse">
<stop stop-color="#4990FE"/>
<stop offset="0.405688" stop-color="#4990FE"/>
<stop offset="1" stop-color="#4990FE" stop-opacity="0"/>
</radialGradient>
<linearGradient id="paint4_linear_272_247" x1="25.2562" y1="36.1002" x2="25.3495" y2="10.2892" gradientUnits="userSpaceOnUse">
<stop stop-color="#2950FF"/>
<stop offset="0.821717" stop-color="#498FFD"/>
</linearGradient>
<radialGradient id="paint5_radial_272_247" cx="0" cy="0" r="1" gradientTransform="matrix(-6.95068 8.51776 -8.4059 -6.89575 25.2562 25.2594)" gradientUnits="userSpaceOnUse">
<stop offset="0.337169" stop-color="#2950FF"/>
<stop offset="0.792226" stop-color="#2950FF" stop-opacity="0"/>
</radialGradient>
</defs>
</svg>
