<svg width="14" height="14" viewBox="0 0 14 14" fill="none" xmlns="http://www.w3.org/2000/svg">
<g clip-path="url(#clip0_3214_8889)">
<path d="M13.9999 6.99931C13.9999 10.8648 10.8662 13.9986 7.00008 13.9986C3.13392 13.9986 0.000244141 10.8648 0.000244141 6.99931C0.000244141 3.13382 3.13399 0 7.00008 0C10.8662 0 13.9999 3.13353 13.9999 6.99931Z" fill="white"/>
<path d="M7.00019 0C3.13541 0 -0.0038156 3.13826 0.00110441 6.99909C0.0020735 7.77152 0.12526 8.51455 0.356463 9.20958H2.45075V3.32158L7.00019 7.87051L11.5494 3.32158V9.20969H13.6441C13.8757 8.5147 13.9982 7.77167 13.9996 6.9992C14.0062 3.13435 10.8654 0.000931721 7.00019 0.000931721V0Z" fill="#F26822"/>
<path d="M5.95377 8.91622L3.96836 6.93091V10.636H2.45042L1.01807 10.6362C2.24669 12.6517 4.4671 14 7.00002 14C9.53293 14 11.7535 12.6514 12.9823 10.6359H10.0312V6.93091L8.0457 8.91622L6.99979 9.96202L5.95384 8.91622H5.95377Z" fill="#4D4D4D"/>
</g>
<defs>
<clipPath id="clip0_3214_8889">
<rect width="14" height="14" fill="white"/>
</clipPath>
</defs>
</svg>
