<svg width="20" height="20" viewBox="0 0 20 20" fill="none" xmlns="http://www.w3.org/2000/svg">
<g clip-path="url(#clip0_3214_8788)">
<path opacity="0.9" d="M20.0007 10.1511C19.9507 8.95082 18.9505 8.00063 17.7252 8.02564C17.1751 8.05064 16.675 8.27568 16.2999 8.62575C14.5996 7.45052 12.5742 6.8254 10.4988 6.77539L11.474 2.09947L14.6996 2.7496C14.7997 3.57476 15.5248 4.17488 16.35 4.07486C17.1751 3.97484 17.7752 3.2497 17.6752 2.42454C17.5752 1.59937 16.8501 0.999255 16.0249 1.09928C15.5498 1.14928 15.1247 1.42434 14.8997 1.82442L11.224 1.09928C10.9739 1.04927 10.7239 1.19929 10.6738 1.44934L9.57363 6.67537C7.47322 6.70038 5.44782 7.3505 3.69747 8.52573C2.8223 7.70057 1.42203 7.72558 0.596865 8.62575C-0.228297 9.50093 -0.203292 10.9012 0.696885 11.7264C0.871919 11.8764 1.07196 12.0264 1.297 12.1264C1.272 12.3515 1.272 12.5765 1.297 12.7766C1.297 16.1522 5.22277 18.9028 10.0737 18.9028C14.9247 18.9028 18.8505 16.1772 18.8505 12.7766C18.8755 12.5515 18.8755 12.3265 18.8505 12.1264C19.5506 11.7764 20.0257 11.0012 20.0007 10.1511ZM4.92272 11.6764C4.92272 10.8512 5.59785 10.1761 6.42301 10.1761C7.24817 10.1761 7.9233 10.8512 7.9233 11.6764C7.9233 12.5015 7.24817 13.1766 6.42301 13.1766C5.59785 13.1766 4.92272 12.5015 4.92272 11.6764ZM13.6744 15.8272C12.5992 16.6273 11.299 17.0524 9.97371 16.9774C8.64845 17.0274 7.32319 16.6273 6.27298 15.8272C6.12295 15.6521 6.14796 15.4021 6.32299 15.2521C6.47302 15.127 6.67306 15.127 6.84809 15.2521C7.74827 15.9022 8.84849 16.2523 9.97371 16.2022C11.0989 16.2523 12.1991 15.9522 13.1243 15.2771C13.2994 15.127 13.5494 15.127 13.7244 15.2771C13.8745 15.4521 13.8745 15.7021 13.7244 15.8772V15.8272H13.6744ZM13.4244 13.2517C12.5992 13.2517 11.9241 12.5765 11.9241 11.7514C11.9241 10.9262 12.5992 10.2511 13.4244 10.2511C14.2495 10.2511 14.9247 10.9262 14.9247 11.7514C14.9497 12.5765 14.3246 13.2767 13.4744 13.3017C13.4494 13.3017 13.4244 13.3017 13.3994 13.3017L13.4244 13.2517Z" fill="white"/>
</g>
<defs>
<clipPath id="clip0_3214_8788">
<rect width="20" height="20" fill="white" transform="translate(-0.000976562)"/>
</clipPath>
</defs>
</svg>
