<svg width="20" height="20" viewBox="0 0 20 20" fill="none" xmlns="http://www.w3.org/2000/svg">
<path d="M1.37477 9.67487C6.74447 7.32302 10.3242 5.77239 12.1141 5.02326C17.2306 2.88409 18.2924 2.51256 18.9859 2.50012C19.1385 2.49752 19.478 2.53542 19.6996 2.71569C19.8838 2.8676 19.9356 3.07304 19.9615 3.21713C19.9845 3.36123 20.0162 3.68964 19.9903 3.94601C19.7141 6.87424 18.5141 13.9801 17.904 17.2599C17.6479 18.6477 17.1385 19.113 16.6464 19.1584C15.5759 19.2574 14.7644 18.4478 13.7285 17.7651C12.1083 16.6966 11.1933 16.0316 9.61922 14.9891C7.80054 13.7842 8.98035 13.1219 10.0163 12.0397C10.2868 11.7565 15.0004 7.44658 15.0896 7.05566C15.1011 7.00676 15.1127 6.82447 15.0033 6.72841C14.8968 6.63205 14.7385 6.66504 14.6234 6.69108C14.4593 6.72812 11.8723 8.44918 6.85369 11.854C6.11989 12.3615 5.45517 12.6089 4.85662 12.5959C4.20051 12.5817 2.93443 12.222 1.99343 11.9147C0.842371 11.5377 -0.0756469 11.3383 0.00492751 10.698C0.0452147 10.3647 0.502835 10.0235 1.37477 9.67487Z" fill="white" fill-opacity="0.9"/>
</svg>
