<svg width="20" height="20" viewBox="0 0 20 20" fill="none" xmlns="http://www.w3.org/2000/svg">
<g opacity="0.9" clip-path="url(#clip0_3214_8809)">
<path d="M19.2194 4.17102C18.4975 3.31283 17.1646 2.96277 14.619 2.96277H5.37875C2.77495 2.96277 1.41947 3.33541 0.700247 4.24909C-0.000976562 5.13992 -0.000976562 6.4525 -0.000976562 8.26914V11.7316C-0.000976562 15.251 0.831021 17.0379 5.37875 17.0379H14.6191C16.8266 17.0379 18.0498 16.729 18.8412 15.9717C19.6527 15.1951 19.999 13.927 19.999 11.7316V8.26914C19.999 6.35334 19.9447 5.03302 19.2194 4.17102ZM12.839 10.4784L8.64306 12.6714C8.54925 12.7204 8.44667 12.7447 8.34422 12.7447C8.22822 12.7447 8.11248 12.7135 8.00996 12.6514C7.81693 12.5345 7.69906 12.3253 7.69906 12.0996V7.72772C7.69906 7.50243 7.81661 7.2934 8.00925 7.17637C8.20196 7.05934 8.44164 7.05134 8.64157 7.15521L12.8376 9.33404C13.051 9.44488 13.1851 9.66526 13.1854 9.90571C13.1857 10.1464 13.0522 10.3671 12.839 10.4784Z" fill="white"/>
</g>
<defs>
<clipPath id="clip0_3214_8809">
<rect width="20" height="20" fill="white" transform="translate(-0.000976562)"/>
</clipPath>
</defs>
</svg>
