<svg width="14" height="14" viewBox="0 0 14 14" fill="none" xmlns="http://www.w3.org/2000/svg">
<g clip-path="url(#clip0_3214_8838)">
<path fill-rule="evenodd" clip-rule="evenodd" d="M8.14522 5.0954e-07H9.75175C10.302 -1.21779e-05 10.765 -2.30524e-05 11.144 0.0314348C11.5404 0.0643402 11.918 0.135858 12.2767 0.321531C12.8231 0.604357 13.2673 1.05565 13.5456 1.61073C13.7284 1.97513 13.7988 2.35876 13.8312 2.7615C13.8622 3.14653 13.8621 3.6169 13.8621 4.17595V5.72404C13.8621 6.28309 13.8622 6.75345 13.8312 7.13848C13.7988 7.54123 13.7284 7.92485 13.5456 8.28926C13.2673 8.84434 12.8231 9.29563 12.2767 9.57845C11.918 9.76413 11.5404 9.83564 11.144 9.86855C10.765 9.90001 10.302 9.9 9.75172 9.89998H4.95419C4.6172 9.89998 4.3131 9.69458 4.18271 9.37889C4.05231 9.06319 4.12107 8.69883 4.35715 8.45452L8.31897 4.35453L9.51305 5.54546L6.94798 8.19999H9.71822C10.3108 8.19999 10.705 8.19933 11.0077 8.1742C11.3007 8.14988 11.4335 8.10696 11.517 8.06375C11.7485 7.9439 11.9368 7.75268 12.0547 7.51748C12.0972 7.43267 12.1395 7.29766 12.1634 7.00005C12.1882 6.69251 12.1888 6.29207 12.1888 5.68999V4.20999C12.1888 3.60791 12.1882 3.20747 12.1634 2.89994C12.1395 2.60232 12.0972 2.46732 12.0547 2.38251C11.9368 2.14731 11.7485 1.95608 11.517 1.83624C11.4335 1.79303 11.3007 1.7501 11.0077 1.72579C10.705 1.70066 10.3108 1.7 9.71822 1.7H8.17899C7.57987 1.7 7.18112 1.70067 6.87508 1.7262C6.5787 1.75092 6.44473 1.79457 6.36096 1.83832C6.12806 1.95998 5.93944 2.15396 5.82255 2.39204C5.78051 2.47766 5.73918 2.6143 5.71846 2.91568C5.69706 3.22689 5.70127 3.63197 5.70857 4.2406L5.71696 4.93963L4.04377 4.96036L4.03497 4.22703C4.02817 3.66172 4.02246 3.18639 4.04921 2.79723C4.07718 2.39039 4.14393 2.00237 4.32518 1.63321C4.60106 1.07134 5.0462 0.613552 5.59585 0.326448C5.95698 0.137815 6.33806 0.0652741 6.73814 0.0319002C7.12084 -2.31511e-05 7.58875 -1.22786e-05 8.14522 5.0954e-07Z" fill="url(#paint0_linear_3214_8838)"/>
<path fill-rule="evenodd" clip-rule="evenodd" d="M8.14522 5.0954e-07H9.75175C10.302 -1.21779e-05 10.765 -2.30524e-05 11.144 0.0314348C11.5404 0.0643402 11.918 0.135858 12.2767 0.321531C12.8231 0.604357 13.2673 1.05565 13.5456 1.61073C13.7284 1.97513 13.7988 2.35876 13.8312 2.7615C13.8622 3.14653 13.8621 3.6169 13.8621 4.17595V5.72404C13.8621 6.28309 13.8622 6.75345 13.8312 7.13848C13.7988 7.54123 13.7284 7.92485 13.5456 8.28926C13.2673 8.84434 12.8231 9.29563 12.2767 9.57845C11.918 9.76413 11.5404 9.83564 11.144 9.86855C10.765 9.90001 10.302 9.9 9.75172 9.89998H4.95419C4.6172 9.89998 4.3131 9.69458 4.18271 9.37889C4.05231 9.06319 4.12107 8.69883 4.35715 8.45452L8.31897 4.35453L9.51305 5.54546L6.94798 8.19999H9.71822C10.3108 8.19999 10.705 8.19933 11.0077 8.1742C11.3007 8.14988 11.4335 8.10696 11.517 8.06375C11.7485 7.9439 11.9368 7.75268 12.0547 7.51748C12.0972 7.43267 12.1395 7.29766 12.1634 7.00005C12.1882 6.69251 12.1888 6.29207 12.1888 5.68999V4.20999C12.1888 3.60791 12.1882 3.20747 12.1634 2.89994C12.1395 2.60232 12.0972 2.46732 12.0547 2.38251C11.9368 2.14731 11.7485 1.95608 11.517 1.83624C11.4335 1.79303 11.3007 1.7501 11.0077 1.72579C10.705 1.70066 10.3108 1.7 9.71822 1.7H8.17899C7.57987 1.7 7.18112 1.70067 6.87508 1.7262C6.5787 1.75092 6.44473 1.79457 6.36096 1.83832C6.12806 1.95998 5.93944 2.15396 5.82255 2.39204C5.78051 2.47766 5.73918 2.6143 5.71846 2.91568C5.69706 3.22689 5.70127 3.63197 5.70857 4.2406L5.71696 4.93963L4.04377 4.96036L4.03497 4.22703C4.02817 3.66172 4.02246 3.18639 4.04921 2.79723C4.07718 2.39039 4.14393 2.00237 4.32518 1.63321C4.60106 1.07134 5.0462 0.613552 5.59585 0.326448C5.95698 0.137815 6.33806 0.0652741 6.73814 0.0319002C7.12084 -2.31511e-05 7.58875 -1.22786e-05 8.14522 5.0954e-07Z" fill="url(#paint1_radial_3214_8838)"/>
<path fill-rule="evenodd" clip-rule="evenodd" d="M8.14522 5.0954e-07H9.75175C10.302 -1.21779e-05 10.765 -2.30524e-05 11.144 0.0314348C11.5404 0.0643402 11.918 0.135858 12.2767 0.321531C12.8231 0.604357 13.2673 1.05565 13.5456 1.61073C13.7284 1.97513 13.7988 2.35876 13.8312 2.7615C13.8622 3.14653 13.8621 3.6169 13.8621 4.17595V5.72404C13.8621 6.28309 13.8622 6.75345 13.8312 7.13848C13.7988 7.54123 13.7284 7.92485 13.5456 8.28926C13.2673 8.84434 12.8231 9.29563 12.2767 9.57845C11.918 9.76413 11.5404 9.83564 11.144 9.86855C10.765 9.90001 10.302 9.9 9.75172 9.89998H4.95419C4.6172 9.89998 4.3131 9.69458 4.18271 9.37889C4.05231 9.06319 4.12107 8.69883 4.35715 8.45452L8.31897 4.35453L9.51305 5.54546L6.94798 8.19999H9.71822C10.3108 8.19999 10.705 8.19933 11.0077 8.1742C11.3007 8.14988 11.4335 8.10696 11.517 8.06375C11.7485 7.9439 11.9368 7.75268 12.0547 7.51748C12.0972 7.43267 12.1395 7.29766 12.1634 7.00005C12.1882 6.69251 12.1888 6.29207 12.1888 5.68999V4.20999C12.1888 3.60791 12.1882 3.20747 12.1634 2.89994C12.1395 2.60232 12.0972 2.46732 12.0547 2.38251C11.9368 2.14731 11.7485 1.95608 11.517 1.83624C11.4335 1.79303 11.3007 1.7501 11.0077 1.72579C10.705 1.70066 10.3108 1.7 9.71822 1.7H8.17899C7.57987 1.7 7.18112 1.70067 6.87508 1.7262C6.5787 1.75092 6.44473 1.79457 6.36096 1.83832C6.12806 1.95998 5.93944 2.15396 5.82255 2.39204C5.78051 2.47766 5.73918 2.6143 5.71846 2.91568C5.69706 3.22689 5.70127 3.63197 5.70857 4.2406L5.71696 4.93963L4.04377 4.96036L4.03497 4.22703C4.02817 3.66172 4.02246 3.18639 4.04921 2.79723C4.07718 2.39039 4.14393 2.00237 4.32518 1.63321C4.60106 1.07134 5.0462 0.613552 5.59585 0.326448C5.95698 0.137815 6.33806 0.0652741 6.73814 0.0319002C7.12084 -2.31511e-05 7.58875 -1.22786e-05 8.14522 5.0954e-07Z" fill="url(#paint2_radial_3214_8838)"/>
<path fill-rule="evenodd" clip-rule="evenodd" d="M8.14522 5.0954e-07H9.75175C10.302 -1.21779e-05 10.765 -2.30524e-05 11.144 0.0314348C11.5404 0.0643402 11.918 0.135858 12.2767 0.321531C12.8231 0.604357 13.2673 1.05565 13.5456 1.61073C13.7284 1.97513 13.7988 2.35876 13.8312 2.7615C13.8622 3.14653 13.8621 3.6169 13.8621 4.17595V5.72404C13.8621 6.28309 13.8622 6.75345 13.8312 7.13848C13.7988 7.54123 13.7284 7.92485 13.5456 8.28926C13.2673 8.84434 12.8231 9.29563 12.2767 9.57845C11.918 9.76413 11.5404 9.83564 11.144 9.86855C10.765 9.90001 10.302 9.9 9.75172 9.89998H4.95419C4.6172 9.89998 4.3131 9.69458 4.18271 9.37889C4.05231 9.06319 4.12107 8.69883 4.35715 8.45452L8.31897 4.35453L9.51305 5.54546L6.94798 8.19999H9.71822C10.3108 8.19999 10.705 8.19933 11.0077 8.1742C11.3007 8.14988 11.4335 8.10696 11.517 8.06375C11.7485 7.9439 11.9368 7.75268 12.0547 7.51748C12.0972 7.43267 12.1395 7.29766 12.1634 7.00005C12.1882 6.69251 12.1888 6.29207 12.1888 5.68999V4.20999C12.1888 3.60791 12.1882 3.20747 12.1634 2.89994C12.1395 2.60232 12.0972 2.46732 12.0547 2.38251C11.9368 2.14731 11.7485 1.95608 11.517 1.83624C11.4335 1.79303 11.3007 1.7501 11.0077 1.72579C10.705 1.70066 10.3108 1.7 9.71822 1.7H8.17899C7.57987 1.7 7.18112 1.70067 6.87508 1.7262C6.5787 1.75092 6.44473 1.79457 6.36096 1.83832C6.12806 1.95998 5.93944 2.15396 5.82255 2.39204C5.78051 2.47766 5.73918 2.6143 5.71846 2.91568C5.69706 3.22689 5.70127 3.63197 5.70857 4.2406L5.71696 4.93963L4.04377 4.96036L4.03497 4.22703C4.02817 3.66172 4.02246 3.18639 4.04921 2.79723C4.07718 2.39039 4.14393 2.00237 4.32518 1.63321C4.60106 1.07134 5.0462 0.613552 5.59585 0.326448C5.95698 0.137815 6.33806 0.0652741 6.73814 0.0319002C7.12084 -2.31511e-05 7.58875 -1.22786e-05 8.14522 5.0954e-07Z" fill="url(#paint3_radial_3214_8838)"/>
<path fill-rule="evenodd" clip-rule="evenodd" d="M2.86251 12.2742C3.16522 12.2993 3.55937 12.3 4.152 12.3H5.71705C6.25743 12.3 6.6168 12.2995 6.89364 12.2785C7.16193 12.2581 7.28496 12.2221 7.36201 12.1862C7.62973 12.0614 7.8445 11.8432 7.96731 11.5712C8.00266 11.4929 8.03813 11.3679 8.05816 11.0954C8.07883 10.8141 8.07937 10.449 8.07937 9.90001H9.75268L9.75269 9.93103C9.7527 10.4408 9.7527 10.8698 9.72683 11.2219C9.6998 11.5898 9.64114 11.9414 9.48823 12.28C9.19839 12.9219 8.69152 13.4369 8.05972 13.7313C7.72639 13.8867 7.38033 13.9463 7.01821 13.9737C6.67164 14 6.2494 14 5.74758 14L4.11847 14C3.5682 14 3.10523 14 2.72625 13.9686C2.32983 13.9357 1.95222 13.8641 1.59353 13.6785C1.04717 13.3956 0.60296 12.9444 0.324574 12.3893C0.141813 12.0249 0.0714188 11.6412 0.0390291 11.2385C0.00806522 10.8535 0.00807667 10.3831 0.00808907 9.82405V8.27596C0.00807667 7.71691 0.00806522 7.24655 0.0390291 6.86152C0.0714188 6.45877 0.141814 6.07515 0.324574 5.71074C0.60296 5.15566 1.04717 4.70437 1.59353 4.42155C1.95222 4.23587 2.32983 4.16436 2.72625 4.13145C3.10524 4.09999 3.56822 4.1 4.1185 4.10002H8.91603C9.3781 4.10002 9.75268 4.48057 9.75268 4.95002C9.75268 5.41946 9.3781 5.80001 8.91603 5.80001H4.152C3.55937 5.80001 3.16522 5.80067 2.86251 5.8258C2.56957 5.85012 2.43668 5.89304 2.3532 5.93626C2.12169 6.0561 1.93347 6.24732 1.81551 6.48252C1.77297 6.56733 1.73072 6.70234 1.70679 6.99995C1.68205 7.30749 1.6814 7.70793 1.6814 8.31001V9.79001C1.6814 10.3921 1.68205 10.7925 1.70679 11.1001C1.73072 11.3977 1.77297 11.5327 1.81551 11.6175C1.93347 11.8527 2.12169 12.0439 2.3532 12.1638C2.43668 12.207 2.56957 12.2499 2.86251 12.2742Z" fill="url(#paint4_linear_3214_8838)"/>
<path fill-rule="evenodd" clip-rule="evenodd" d="M2.86251 12.2742C3.16522 12.2993 3.55937 12.3 4.152 12.3H5.71705C6.25743 12.3 6.6168 12.2995 6.89364 12.2785C7.16193 12.2581 7.28496 12.2221 7.36201 12.1862C7.62973 12.0614 7.8445 11.8432 7.96731 11.5712C8.00266 11.4929 8.03813 11.3679 8.05816 11.0954C8.07883 10.8141 8.07937 10.449 8.07937 9.90001H9.75268L9.75269 9.93103C9.7527 10.4408 9.7527 10.8698 9.72683 11.2219C9.6998 11.5898 9.64114 11.9414 9.48823 12.28C9.19839 12.9219 8.69152 13.4369 8.05972 13.7313C7.72639 13.8867 7.38033 13.9463 7.01821 13.9737C6.67164 14 6.2494 14 5.74758 14L4.11847 14C3.5682 14 3.10523 14 2.72625 13.9686C2.32983 13.9357 1.95222 13.8641 1.59353 13.6785C1.04717 13.3956 0.60296 12.9444 0.324574 12.3893C0.141813 12.0249 0.0714188 11.6412 0.0390291 11.2385C0.00806522 10.8535 0.00807667 10.3831 0.00808907 9.82405V8.27596C0.00807667 7.71691 0.00806522 7.24655 0.0390291 6.86152C0.0714188 6.45877 0.141814 6.07515 0.324574 5.71074C0.60296 5.15566 1.04717 4.70437 1.59353 4.42155C1.95222 4.23587 2.32983 4.16436 2.72625 4.13145C3.10524 4.09999 3.56822 4.1 4.1185 4.10002H8.91603C9.3781 4.10002 9.75268 4.48057 9.75268 4.95002C9.75268 5.41946 9.3781 5.80001 8.91603 5.80001H4.152C3.55937 5.80001 3.16522 5.80067 2.86251 5.8258C2.56957 5.85012 2.43668 5.89304 2.3532 5.93626C2.12169 6.0561 1.93347 6.24732 1.81551 6.48252C1.77297 6.56733 1.73072 6.70234 1.70679 6.99995C1.68205 7.30749 1.6814 7.70793 1.6814 8.31001V9.79001C1.6814 10.3921 1.68205 10.7925 1.70679 11.1001C1.73072 11.3977 1.77297 11.5327 1.81551 11.6175C1.93347 11.8527 2.12169 12.0439 2.3532 12.1638C2.43668 12.207 2.56957 12.2499 2.86251 12.2742Z" fill="url(#paint5_radial_3214_8838)"/>
</g>
<defs>
<linearGradient id="paint0_linear_3214_8838" x1="6.60924" y1="9.82311" x2="6.72238" y2="-0.0125936" gradientUnits="userSpaceOnUse">
<stop offset="0.43118" stop-color="#498FFD"/>
<stop offset="1" stop-color="#16D1D6"/>
</linearGradient>
<radialGradient id="paint1_radial_3214_8838" cx="0" cy="0" r="1" gradientUnits="userSpaceOnUse" gradientTransform="translate(3.91322 2.99743) rotate(-15.6504) scale(6.32553 6.34404)">
<stop stop-color="#18CFD7"/>
<stop offset="1" stop-color="#18CFD7" stop-opacity="0"/>
</radialGradient>
<radialGradient id="paint2_radial_3214_8838" cx="0" cy="0" r="1" gradientUnits="userSpaceOnUse" gradientTransform="translate(7.60777 5.80801) rotate(152.23) scale(2.36985 2.3732)">
<stop stop-color="#4990FE"/>
<stop offset="0.353962" stop-color="#4990FE"/>
<stop offset="1" stop-color="#4990FE" stop-opacity="0"/>
</radialGradient>
<radialGradient id="paint3_radial_3214_8838" cx="0" cy="0" r="1" gradientUnits="userSpaceOnUse" gradientTransform="translate(4.71204 9.02009) rotate(-46.0893) scale(4.31929 4.31174)">
<stop stop-color="#4990FE"/>
<stop offset="0.405688" stop-color="#4990FE"/>
<stop offset="1" stop-color="#4990FE" stop-opacity="0"/>
</radialGradient>
<linearGradient id="paint4_linear_3214_8838" x1="9.80453" y1="14.039" x2="9.84091" y2="4.00136" gradientUnits="userSpaceOnUse">
<stop stop-color="#2950FF"/>
<stop offset="0.821717" stop-color="#498FFD"/>
</linearGradient>
<radialGradient id="paint5_radial_3214_8838" cx="0" cy="0" r="1" gradientUnits="userSpaceOnUse" gradientTransform="translate(9.80453 9.82313) rotate(129.142) scale(4.27094 4.22156)">
<stop offset="0.337169" stop-color="#2950FF"/>
<stop offset="0.792226" stop-color="#2950FF" stop-opacity="0"/>
</radialGradient>
<clipPath id="clip0_3214_8838">
<rect width="14" height="14" fill="white"/>
</clipPath>
</defs>
</svg>
